HIERARCHY
ROOT Root
{
  OFFSET 0.0 0.0 0.0
  CHANNELS 6 Xposition Yposition Zposition Zrotation Yrotation Xrotation
  JOINT Hips
  {
    OFFSET 0.0 100.0 0.0
    CHANNELS 6 Xposition Yposition Zposition Zrotation Yrotation Xrotation
    JOINT Spine1
    {
      OFFSET 5.003913 -0.037094 -0.013727
      CHANNELS 3 Zrotation Yrotation Xrotation
      JOINT Spine2
      {
        OFFSET 7.125363 -1e-06 0.0
        CHANNELS 3 Zrotation Yrotation Xrotation
        JOINT Chest
        {
          OFFSET 7.594027 1e-06 0.0
          CHANNELS 3 Zrotation Yrotation Xrotation
          JOINT Neck1
          {
            OFFSET 26.313086 -0.460272 -0.181672
            CHANNELS 3 Zrotation Yrotation Xrotation
            JOINT Neck2
            {
              OFFSET 8.045911 0.0 0.0
              CHANNELS 3 Zrotation Yrotation Xrotation
              JOINT Head
              {
                OFFSET 6.432774 0.0 0.0
                CHANNELS 3 Zrotation Yrotation Xrotation
                JOINT HeadEnd
                {
                  OFFSET 16.169773 0.06451 0.00362
                  CHANNELS 3 Zrotation Yrotation Xrotation
                }
                JOINT Jaw
                {
                  OFFSET 0.108741 3.12938 0.002639
                  CHANNELS 3 Zrotation Yrotation Xrotation
                }
                JOINT LeftEye
                {
                  OFFSET 4.45173 8.166359 3.206392
                  CHANNELS 3 Zrotation Yrotation Xrotation
                }
                JOINT RightEye
                {
                  OFFSET 4.436895 8.135758 -3.222429
                  CHANNELS 3 Zrotation Yrotation Xrotation
                }
              }
            }
          }
          JOINT LeftShoulder
          {
            OFFSET 23.218927 5.195579 1.621656
            CHANNELS 3 Zrotation Yrotation Xrotation
            JOINT LeftArm
            {
              OFFSET 15.902118 2e-06 -2e-06
              CHANNELS 3 Zrotation Yrotation Xrotation
              JOINT LeftForeArm
              {
                OFFSET 28.739307 0.0 -1e-06
                CHANNELS 3 Zrotation Yrotation Xrotation
                JOINT LeftHand
                {
                  OFFSET 27.093981 -4e-06 0.0
                  CHANNELS 3 Zrotation Yrotation Xrotation
                  JOINT LeftHandThumb1
                  {
                    OFFSET 2.276781 3.380274 0.83384
                    CHANNELS 3 Zrotation Yrotation Xrotation
                    JOINT LeftHandThumb2
                    {
                      OFFSET 4.705309 -1e-06 -1e-06
                      CHANNELS 3 Zrotation Yrotation Xrotation
                      JOINT LeftHandThumb3
                      {
                        OFFSET 2.798515 0.0 3e-06
                        CHANNELS 3 Zrotation Yrotation Xrotation
                        JOINT LeftHandThumbEnd
                        {
                          OFFSET 3.180793 4e-06 -4e-06
                          CHANNELS 3 Zrotation Yrotation Xrotation
                        }
                      }
                    }
                  }
                  JOINT LeftHandIndex1
                  {
                    OFFSET 3.247786 2.352677 0.137192
                    CHANNELS 3 Zrotation Yrotation Xrotation
                    JOINT LeftHandIndex2
                    {
                      OFFSET 6.367095 1e-06 0.0
                      CHANNELS 3 Zrotation Yrotation Xrotation
                      JOINT LeftHandIndex3
                      {
                        OFFSET 3.662364 0.0 0.0
                        CHANNELS 3 Zrotation Yrotation Xrotation
                        JOINT LeftHandIndex4
                        {
                          OFFSET 2.329242 4e-06 -4e-06
                          CHANNELS 3 Zrotation Yrotation Xrotation
                          JOINT LeftHandIndexEnd
                          {
                            OFFSET 2.767823 1e-06 0.0
                            CHANNELS 3 Zrotation Yrotation Xrotation
                          }
                        }
                      }
                    }
                  }
                  JOINT LeftHandMiddle1
                  {
                    OFFSET 3.163612 0.945023 -0.406112
                    CHANNELS 3 Zrotation Yrotation Xrotation
                    JOINT LeftHandMiddle2
                    {
                      OFFSET 6.276789 3e-06 0.0
                      CHANNELS 3 Zrotation Yrotation Xrotation
                      JOINT LeftHandMiddle3
                      {
                        OFFSET 4.35652 -1e-06 4e-06
                        CHANNELS 3 Zrotation Yrotation Xrotation
                        JOINT LeftHandMiddle4
                        {
                          OFFSET 2.996877 0.0 8e-06
                          CHANNELS 3 Zrotation Yrotation Xrotation
                          JOINT LeftHandMiddleEnd
                          {
                            OFFSET 2.323256 3e-06 -4e-06
                            CHANNELS 3 Zrotation Yrotation Xrotation
                          }
                        }
                      }
                    }
                  }
                  JOINT LeftHandRing1
                  {
                    OFFSET 2.882606 -0.309162 0.107445
                    CHANNELS 3 Zrotation Yrotation Xrotation
                    JOINT LeftHandRing2
                    {
                      OFFSET 6.033198 0.0 4e-06
                      CHANNELS 3 Zrotation Yrotation Xrotation
                      JOINT LeftHandRing3
                      {
                        OFFSET 4.350578 3e-06 0.0
                        CHANNELS 3 Zrotation Yrotation Xrotation
                        JOINT LeftHandRing4
                        {
                          OFFSET 2.651321 2e-06 -7e-06
                          CHANNELS 3 Zrotation Yrotation Xrotation
                          JOINT LeftHandRingEnd
                          {
                            OFFSET 1.937663 1e-06 -4e-06
                            CHANNELS 3 Zrotation Yrotation Xrotation
                          }
                        }
                      }
                    }
                  }
                  JOINT LeftHandPinky1
                  {
                    OFFSET 2.865315 -1.525436 0.575687
                    CHANNELS 3 Zrotation Yrotation Xrotation
                    JOINT LeftHandPinky2
                    {
                      OFFSET 5.54936 1e-06 -8e-06
                      CHANNELS 3 Zrotation Yrotation Xrotation
                      JOINT LeftHandPinky3
                      {
                        OFFSET 3.070974 0.0 -4e-06
                        CHANNELS 3 Zrotation Yrotation Xrotation
                        JOINT LeftHandPinky4
                        {
                          OFFSET 1.549672 1e-06 0.0
                          CHANNELS 3 Zrotation Yrotation Xrotation
                          JOINT LeftHandPinkyEnd
                          {
                            OFFSET 1.952123 0.0 0.0
                            CHANNELS 3 Zrotation Yrotation Xrotation
                          }
                        }
                      }
                    }
                  }
                }
              }
            }
          }
          JOINT RightShoulder
          {
            OFFSET 23.161716 5.296122 -1.380114
            CHANNELS 3 Zrotation Yrotation Xrotation
            JOINT RightArm
            {
              OFFSET -16.027195 -2e-06 1.1e-05
              CHANNELS 3 Zrotation Yrotation Xrotation
              JOINT RightForeArm
              {
                OFFSET -28.736639 4e-06 2e-06
                CHANNELS 3 Zrotation Yrotation Xrotation
                JOINT RightHand
                {
                  OFFSET -27.133619 6e-06 0.0
                  CHANNELS 3 Zrotation Yrotation Xrotation
                  JOINT RightHandThumb1
                  {
                    OFFSET -2.274328 -3.351035 -0.83067
                    CHANNELS 3 Zrotation Yrotation Xrotation
                    JOINT RightHandThumb2
                    {
                      OFFSET -4.703594 -3e-06 2e-06
                      CHANNELS 3 Zrotation Yrotation Xrotation
                      JOINT RightHandThumb3
                      {
                        OFFSET -2.794935 -4e-06 -3e-06
                        CHANNELS 3 Zrotation Yrotation Xrotation
                        JOINT RightHandThumbEnd
                        {
                          OFFSET -3.183852 4e-06 1e-06
                          CHANNELS 3 Zrotation Yrotation Xrotation
                        }
                      }
                    }
                  }
                  JOINT RightHandIndex1
                  {
                    OFFSET -3.253496 -2.33755 -0.127667
                    CHANNELS 3 Zrotation Yrotation Xrotation
                    JOINT RightHandIndex2
                    {
                      OFFSET -6.344434 0.0 0.0
                      CHANNELS 3 Zrotation Yrotation Xrotation
                      JOINT RightHandIndex3
                      {
                        OFFSET -3.654871 0.0 -8e-06
                        CHANNELS 3 Zrotation Yrotation Xrotation
                        JOINT RightHandIndex4
                        {
                          OFFSET -2.327586 -1e-06 0.0
                          CHANNELS 3 Zrotation Yrotation Xrotation
                          JOINT RightHandIndexEnd
                          {
                            OFFSET -2.770001 3e-06 8e-06
                            CHANNELS 3 Zrotation Yrotation Xrotation
                          }
                        }
                      }
                    }
                  }
                  JOINT RightHandMiddle1
                  {
                    OFFSET -3.168223 -0.944764 0.411762
                    CHANNELS 3 Zrotation Yrotation Xrotation
                    JOINT RightHandMiddle2
                    {
                      OFFSET -6.266691 -1e-06 -4e-06
                      CHANNELS 3 Zrotation Yrotation Xrotation
                      JOINT RightHandMiddle3
                      {
                        OFFSET -4.348901 0.0 0.0
                        CHANNELS 3 Zrotation Yrotation Xrotation
                        JOINT RightHandMiddle4
                        {
                          OFFSET -3.00024 2e-06 -4e-06
                          CHANNELS 3 Zrotation Yrotation Xrotation
                          JOINT RightHandMiddleEnd
                          {
                            OFFSET -2.321477 -4e-06 -4e-06
                            CHANNELS 3 Zrotation Yrotation Xrotation
                          }
                        }
                      }
                    }
                  }
                  JOINT RightHandRing1
                  {
                    OFFSET -2.885654 0.293261 -0.119232
                    CHANNELS 3 Zrotation Yrotation Xrotation
                    JOINT RightHandRing2
                    {
                      OFFSET -6.032835 -1e-06 -4e-06
                      CHANNELS 3 Zrotation Yrotation Xrotation
                      JOINT RightHandRing3
                      {
                        OFFSET -4.33881 0.0 -4e-06
                        CHANNELS 3 Zrotation Yrotation Xrotation
                        JOINT RightHandRing4
                        {
                          OFFSET -2.654903 -4e-06 -4e-06
                          CHANNELS 3 Zrotation Yrotation Xrotation
                          JOINT RightHandRingEnd
                          {
                            OFFSET -1.935122 0.0 4e-06
                            CHANNELS 3 Zrotation Yrotation Xrotation
                          }
                        }
                      }
                    }
                  }
                  JOINT RightHandPinky1
                  {
                    OFFSET -2.866241 1.503904 -0.60527
                    CHANNELS 3 Zrotation Yrotation Xrotation
                    JOINT RightHandPinky2
                    {
                      OFFSET -5.553177 -2e-06 0.0
                      CHANNELS 3 Zrotation Yrotation Xrotation
                      JOINT RightHandPinky3
                      {
                        OFFSET -3.062664 -1e-06 -4e-06
                        CHANNELS 3 Zrotation Yrotation Xrotation
                        JOINT RightHandPinky4
                        {
                          OFFSET -1.546529 2e-06 4e-06
                          CHANNELS 3 Zrotation Yrotation Xrotation
                          JOINT RightHandPinkyEnd
                          {
                            OFFSET -1.952341 0.0 -4e-06
                            CHANNELS 3 Zrotation Yrotation Xrotation
                          }
                        }
                      }
                    }
                  }
                }
              }
            }
          }
        }
      }
    }
    JOINT LeftLeg
    {
      OFFSET -8.443107 2.567604 10.043214
      CHANNELS 3 Zrotation Yrotation Xrotation
      JOINT LeftShin
      {
        OFFSET 43.229198 1e-06 -1e-06
        CHANNELS 3 Zrotation Yrotation Xrotation
        JOINT LeftFoot
        {
          OFFSET 42.298611 1e-06 1e-06
          CHANNELS 3 Zrotation Yrotation Xrotation
          JOINT LeftToeBase
          {
            OFFSET 14.165858 1e-06 0.0
            CHANNELS 3 Zrotation Yrotation Xrotation
            JOINT LeftToeEnd
            {
              OFFSET 6.7141 -0.234461 0.0
              CHANNELS 3 Zrotation Yrotation Xrotation
            }
          }
        }
      }
    }
    JOINT RightLeg
    {
      OFFSET -8.303923 2.592729 -10.047278
      CHANNELS 3 Zrotation Yrotation Xrotation
      JOINT RightShin
      {
        OFFSET -43.369682 0.0 1e-06
        CHANNELS 3 Zrotation Yrotation Xrotation
        JOINT RightFoot
        {
          OFFSET -42.260784 4e-06 2e-06
          CHANNELS 3 Zrotation Yrotation Xrotation
          JOINT RightToeBase
          {
            OFFSET -14.222245 -2e-06 -1e-06
            CHANNELS 3 Zrotation Yrotation Xrotation
            JOINT RightToeEnd
            {
              OFFSET -6.660062 0.232574 -2e-06
              CHANNELS 3 Zrotation Yrotation Xrotation
            }
          }
        }
      }
    }
  }
}
MOTION
Frames: 4
Frame Time: 0.03333333333333333
0.0 0.0 0.0 0.0 -0.0 0.0 1.557375 99.393822 5.813417 92.087585 0.109292 90.116409 -4.33674 0.219737 0.075713 -12.331054 -0.476739 0.52387 17.710636 -1.762864 -1.552305 21.207279 -1.263201 2.707678 -2.482119 -0.627211 1.587224 -26.031553 -2.063394 3.021889 6e-06 0.0 0.0 0.002934 0.040388 0.011369 0.037501 0.12348 0.028138 0.077108 -0.049485 0.003573 -143.773849 -69.856331 161.207214 32.824966 -49.492161 12.1446 26.674883 -0.063826 -0.07506 2.516068 6.943676 5.576624 17.636629 -26.322729 52.411194 -19.466652 -14.395597 29.410385 -0.0 -8.774821 1e-06 15.584904 -18.094017 6.188518 -0.609778 -1.795654 -3.889328 -4.807089 -11.04681 -2.93785 3e-06 -20.976015 -1e-06 -5.019972 -25.033552 -4.03188 4e-06 1e-06 1e-06 -10.634534 -5.686971 -3.565589 10.573271 -17.922947 -3.113898 1e-06 -13.821206 0.0 -0.501778 -31.181501 -4.027012 -11.030611 -58.927887 6.945973 -13.982715 -7.150196 -2.875041 13.772728 -8.401489 -3.218241 0.347732 -34.211536 0.771654 -0.963031 -17.733366 2.621022 1e-06 -0.0 -1e-06 -17.346418 -20.095213 -4.201781 21.757557 -1.638374 3.866428 1e-06 -6.338822 0.0 -1.697593 -22.59174 -6.194004 -1e-06 -4e-06 -0.0 18.964531 -66.931488 179.692871 33.714176 -46.312576 7.324941 24.506039 -0.216143 0.01729 -1.823472 3.770908 14.526701 22.182108 -20.375895 49.933319 -16.701811 -16.743528 28.47653 -3e-06 -12.6906 -0.0 16.256804 -17.603374 2.544868 -0.105919 -1.513857 -4.275881 -5.03904 -5.612869 -2.953557 3e-06 -11.02052 -2e-06 -6.111296 -15.89533 -3.84047 0.0 0.0 -0.0 -10.283369 -5.680287 -4.341839 11.028294 -11.302402 -2.372634 -1.384269 -14.238577 -6.32012 -0.625438 -26.924183 -3.8276 -4.316683 -49.945866 -3.859658 -13.708524 -7.363474 -3.720938 18.141146 -14.052736 -3.242675 7e-06 -18.787266 -3e-06 -0.429712 -8.456041 2.555503 -1e-06 -0.0 2e-06 -15.923534 -20.094479 -5.473584 30.419207 -7.190824 1.735928 2e-06 -8.162921 -1e-06 -1.861901 -22.861467 -6.167942 -1e-06 -1e-06 -2e-06 -179.07666 -3.075326 -3.97975 11.064093 -0.055455 -0.072814 -80.274101 -4.58271 -9.413809 -5.982444 1.560774 2.116484 -0.999998 0.0 0.0 -1.979329 -9.152219 -5.233211 17.220751 -0.01622 0.044336 -83.593971 1.587506 -7.525741 -6.167371 0.643555 1.639205 -1.000001 -0.0 0.0 
0.0 0.0 0.0 0.0 -0.0 0.0 1.684854 99.417145 5.955472 92.11972 0.120927 90.026817 -4.345587 0.190467 0.077273 -12.312188 -0.460445 0.57022 17.692818 -1.729385 -1.596139 21.200043 -1.266732 2.727622 -2.480421 -0.596918 1.575285 -26.040941 -2.047991 3.031133 6e-06 0.0 0.0 -0.002921 0.037026 0.026088 0.025388 0.123976 0.043369 0.065187 -0.056766 0.01695 -143.665466 -69.889137 161.120758 32.805916 -49.582447 12.042545 26.59877 -0.127456 -0.111865 2.525159 6.601956 5.824506 17.636633 -26.322733 52.411201 -19.46666 -14.395596 29.410389 0.0 -8.774821 2e-06 15.618614 -18.050041 6.157646 -0.609776 -1.795653 -3.889325 -4.80709 -11.046812 -2.937849 2e-06 -20.976019 -2e-06 -5.019974 -25.03356 -4.031876 7e-06 2e-06 -1e-06 -10.634536 -5.686973 -3.56559 10.573275 -17.922953 -3.113901 2e-06 -13.821211 -3e-06 -0.501777 -31.181505 -4.027016 -11.06175 -58.976048 7.065767 -13.982715 -7.150196 -2.875043 13.77273 -8.401491 -3.21824 0.347734 -34.211555 0.771655 -0.963031 -17.73337 2.621023 1e-06 -1e-06 -0.0 -17.346422 -20.095217 -4.201784 21.757561 -1.638374 3.866429 2e-06 -6.338824 1e-06 -1.697591 -22.591743 -6.194005 1e-06 -6e-06 -0.0 19.048832 -66.945236 179.705811 33.457329 -46.382393 7.299654 24.413111 -0.236231 -0.012941 -1.77689 3.716529 14.5347 22.18211 -20.375893 49.933315 -16.701811 -16.743528 28.476526 -3e-06 -12.6906 -0.0 16.273413 -17.586546 2.529222 -0.105919 -1.513856 -4.275884 -5.03904 -5.61287 -2.953555 3e-06 -11.02052 -2e-06 -6.111296 -15.895328 -3.840472 -0.0 -0.0 -0.0 -10.283368 -5.680287 -4.341835 11.028292 -11.302402 -2.372635 -1.384269 -14.238577 -6.32012 -0.625436 -26.924183 -3.827602 -4.317691 -50.063721 -3.820784 -13.708524 -7.363477 -3.720939 18.14115 -14.052738 -3.242676 8e-06 -18.787266 -3e-06 -0.429712 -8.456041 2.555504 -0.0 -0.0 -1e-06 -15.923534 -20.094479 -5.473584 30.419207 -7.190826 1.735925 3e-06 -8.162924 -0.0 -1.861901 -22.861467 -6.167942 0.0 -2e-06 -2e-06 -178.602493 -2.9526 -4.027097 10.404976 -0.042629 -0.016747 -80.10096 -4.648104 -9.449066 -6.018099 1.582299 2.123259 -0.999998 -0.0 -0.0 -1.689 -9.252441 -5.212316 16.801622 -0.016248 0.047558 -83.45208 1.5868 -7.556148 -6.264927 0.613111 1.632278 -1.000002 -0.0 -0.0 
0.0 0.0 0.0 0.0 -0.0 0.0 1.806104 99.417282 6.078891 92.155571 0.139059 89.918594 -4.361965 0.165353 0.079289 -12.312116 -0.460762 0.585937 17.742603 -1.677437 -1.595777 21.169605 -1.29742 2.763875 -2.519386 -0.553866 1.531683 -26.0105 -2.038316 3.073685 6e-06 -0.0 0.0 -0.008733 0.03551 0.02063 0.005148 0.120899 0.041536 0.048399 -0.056982 0.006913 -143.586853 -69.895126 161.08931 32.77187 -49.624531 11.988842 26.55801 -0.168384 -0.145082 2.461791 6.297418 5.942997 17.636627 -26.322733 52.41119 -19.46666 -14.395598 29.410389 -1e-06 -8.774822 2e-06 15.662263 -18.064564 6.133045 -0.609776 -1.795654 -3.889328 -4.807088 -11.046811 -2.937849 4e-06 -20.976015 -3e-06 -5.01997 -25.033556 -4.031879 8e-06 1e-06 -1e-06 -10.634533 -5.686969 -3.565586 10.573274 -17.922949 -3.113901 2e-06 -13.821209 -1e-06 -0.501776 -31.181505 -4.027016 -11.129086 -59.014435 7.106828 -13.982714 -7.150195 -2.87504 13.77273 -8.401493 -3.218242 0.347737 -34.211555 0.77165 -0.963029 -17.73337 2.621024 0.0 -0.0 -1e-06 -17.346416 -20.095215 -4.201779 21.757561 -1.638375 3.866427 1e-06 -6.338822 0.0 -1.697591 -22.591743 -6.194004 0.0 -5e-06 -1e-06 19.063313 -66.926949 179.758453 33.181194 -46.392532 7.293268 24.310463 -0.269611 -0.047816 -1.774419 3.659168 14.619575 22.182112 -20.375885 49.933296 -16.701807 -16.743528 28.476521 -2e-06 -12.6906 -1e-06 16.264317 -17.536484 2.53481 -0.105919 -1.513859 -4.275879 -5.03904 -5.612869 -2.953556 3e-06 -11.02052 -1e-06 -6.111297 -15.895329 -3.840472 0.0 1e-06 1e-06 -10.283371 -5.680288 -4.341838 11.028291 -11.302402 -2.372632 -1.384269 -14.238577 -6.320117 -0.625437 -26.924183 -3.8276 -4.311841 -50.090759 -3.807108 -13.708524 -7.363477 -3.720937 18.141148 -14.052736 -3.242674 6e-06 -18.787266 -1e-06 -0.42971 -8.456043 2.555503 1e-06 -2e-06 0.0 -15.923536 -20.094481 -5.473583 30.41921 -7.190825 1.735926 3e-06 -8.162922 -2e-06 -1.861903 -22.861464 -6.167938 -2e-06 -1e-06 -1e-06 -178.365891 -2.827152 -4.088706 10.149233 -0.037536 0.018202 -80.093063 -4.70587 -9.426079 -5.994641 1.5874 2.129152 -0.999999 -0.0 0.0 -1.522709 -9.373026 -5.176808 16.61466 -0.00517 0.041153 -83.41452 1.613317 -7.63763 -6.266426 0.59605 1.628138 -1.000002 0.0 -0.0 
0.0 0.0 0.0 0.0 -0.0 0.0 1.910428 99.40937 6.152284 92.186653 0.178089 89.796684 -4.365397 0.132263 0.082844 -12.321336 -0.462467 0.582503 17.807533 -1.621999 -1.563943 21.152489 -1.327476 2.787809 -2.560231 -0.534102 1.527976 -25.994339 -2.015183 3.096859 6e-06 0.0 -0.0 -0.012585 0.034044 0.015997 -0.013931 0.115564 0.040745 0.032469 -0.054801 -0.002284 -143.500015 -69.875046 161.048401 32.72855 -49.633644 12.077788 26.494415 -0.170415 -0.154593 2.386051 6.12617 6.040702 17.636625 -26.322725 52.411182 -19.466654 -14.395596 29.410385 -1e-06 -8.77482 -0.0 15.682255 -18.064306 6.126493 -0.609779 -1.795654 -3.889327 -4.807087 -11.046806 -2.93785 4e-06 -20.976011 -1e-06 -5.019969 -25.033545 -4.031877 6e-06 1e-06 -0.0 -10.634531 -5.686969 -3.565586 10.573271 -17.922945 -3.113899 1e-06 -13.821202 -0.0 -0.501778 -31.181488 -4.027012 -11.162986 -59.044239 7.12271 -13.982711 -7.150196 -2.875041 13.772725 -8.401489 -3.21824 0.347734 -34.211536 0.77165 -0.963027 -17.733368 2.621021 -2e-06 0.0 -0.0 -17.346413 -20.095209 -4.201782 21.757555 -1.638376 3.86643 2e-06 -6.338821 0.0 -1.697589 -22.591734 -6.194003 -0.0 -5e-06 -1e-06 19.056129 -66.897835 179.800949 32.922955 -46.393349 7.468396 24.193148 -0.262984 -0.063704 -1.807435 3.545421 14.726217 22.18211 -20.375891 49.9333 -16.701811 -16.743526 28.476519 -3e-06 -12.690598 -2e-06 16.2395 -17.483519 2.550808 -0.10592 -1.513855 -4.27588 -5.039039 -5.612868 -2.953554 4e-06 -11.02052 -2e-06 -6.111296 -15.895328 -3.840472 1e-06 -0.0 -0.0 -10.283367 -5.680285 -4.341839 11.028292 -11.302402 -2.372633 -1.384268 -14.238577 -6.320118 -0.625437 -26.924179 -3.827599 -4.321229 -50.054077 -3.774882 -13.708522 -7.363475 -3.720936 18.141146 -14.052736 -3.242674 5e-06 -18.787266 1e-06 -0.429712 -8.45604 2.555503 1e-06 -1e-06 1e-06 -15.923534 -20.094479 -5.473582 30.419205 -7.190825 1.735927 4e-06 -8.162922 -2e-06 -1.861902 -22.86146 -6.167938 -1e-06 -2e-06 -2e-06 -178.234848 -2.723833 -4.19173 10.102115 -0.039593 0.035783 -80.142799 -4.770898 -9.397491 -5.970146 1.59061 2.132021 -0.999999 -0.0 0.0 -1.433379 -9.484727 -5.140703 16.553194 0.002676 0.030088 -83.41082 1.684019 -7.723757 -6.250659 0.579714 1.622941 -1.000001 -0.0 -0.0 
